<svg width="80" height="120" viewBox="0 0 80 120" fill="none" xmlns="http://www.w3.org/2000/svg">
<path d="M80 19.9994C80 8.95404 71.046 0 60.0006 0H20.4108C9.36543 0 0.4114 8.95404 0.4114 19.9994C0.4114 31.0448 9.36543 39.9988 20.4108 39.9988H60.0006C71.046 39.9988 80 31.0448 80 19.9994Z" fill="#F2321E"/>
<path d="M80 19.9994C80 8.95404 71.046 0 60.0006 0H40.2057V39.9988H60.0006C71.046 39.9988 80 31.0448 80 19.9994Z" fill="#FF6C5C"/>
<ellipse rx="19.8972" ry="19.9994" transform="matrix(-1 0 0 1 60.1009 59.9966)" fill="#1ABDFF"/>
<path fill-rule="evenodd" clip-rule="evenodd" d="M20.307 120C9.31806 120 0.409801 111.046 0.409801 100.001C0.409801 88.9554 9.31806 80.0013 20.307 80.0013H40.2041V100.001C40.2041 111.046 31.2958 120 20.307 120Z" fill="#3ED67E"/>
<path fill-rule="evenodd" clip-rule="evenodd" d="M19.9009 39.9994H40.2041V79.9982H19.9273C19.9172 79.9982 19.907 79.9982 19.8969 79.9982C8.90798 79.9982 -0.000282288 71.0442 -0.000282288 59.9988C-0.000282288 48.9535 8.90798 39.9994 19.8969 39.9994C19.8982 39.9994 19.8995 39.9994 19.9009 39.9994V39.9994Z" fill="#943FFF"/>
</svg>
